<?xml version="1.0" encoding="utf-8"?>
<!-- Generator: Adobe Illustrator 16.0.0, SVG Export Plug-In . SVG Version: 6.00 Build 0)  -->
<!DOCTYPE svg PUBLIC "-//W3C//DTD SVG 1.1//EN" "http://www.w3.org/Graphics/SVG/1.1/DTD/svg11.dtd">
<svg version="1.1" id="Layer_1" xmlns="http://www.w3.org/2000/svg" xmlns:xlink="http://www.w3.org/1999/xlink" x="0px" y="0px"
	 width="255.566px" height="49.09px" viewBox="0 0 255.566 49.09" enable-background="new 0 0 255.566 49.09" xml:space="preserve">
<g enable-background="new    ">
	<path fill="#FFFFFF" d="M90.249,14.608c0,1.67-0.344,3.107-1.033,4.312s-1.639,2.182-2.85,2.933
		c-1.253,0.78-2.683,1.344-4.291,1.691c-1.607,0.348-3.413,0.521-5.417,0.521h-2.421v8.33c0,0.502,0.094,0.936,0.282,1.305
		s0.546,0.666,1.075,0.887c0.278,0.113,0.73,0.23,1.357,0.355s1.155,0.209,1.586,0.25v1.629H62.483v-1.629
		c0.404-0.041,0.939-0.1,1.607-0.176c0.668-0.078,1.134-0.172,1.399-0.283c0.543-0.223,0.901-0.494,1.075-0.814
		c0.174-0.318,0.261-0.764,0.261-1.336V11.686c0-0.487-0.083-0.908-0.25-1.264c-0.167-0.354-0.529-0.65-1.085-0.887
		c-0.39-0.168-0.908-0.316-1.555-0.449c-0.647-0.133-1.131-0.219-1.451-0.261V7.198H78.83c3.827,0,6.688,0.608,8.58,1.826
		C89.303,10.242,90.249,12.103,90.249,14.608z M82.108,15.672c0-2.227-0.449-3.879-1.347-4.957
		c-0.898-1.079-2.495-1.619-4.792-1.619h-1.732v13.007h0.876c2.283,0,4.019-0.524,5.209-1.576
		C81.512,19.476,82.108,17.858,82.108,15.672z"/>
	<path fill="#FFFFFF" d="M111.89,17.635c-0.626,0.098-1.235,0.334-1.827,0.71c-0.592,0.376-1.083,0.96-1.472,1.754
		c-1.197,2.533-2.429,5.229-3.695,8.09c-1.267,2.86-2.672,5.952-4.217,9.28c-0.863,1.863-1.698,3.354-2.505,4.467
		s-1.565,1.969-2.275,2.568c-0.668,0.557-1.329,0.959-1.983,1.211c-0.654,0.25-1.315,0.375-1.983,0.375
		c-1.322,0-2.39-0.369-3.205-1.105c-0.814-0.738-1.221-1.566-1.221-2.484c0-0.391,0.045-0.752,0.136-1.086
		c0.09-0.334,0.282-0.682,0.574-1.045c0.223-0.305,0.567-0.566,1.033-0.781c0.466-0.217,0.991-0.324,1.575-0.324
		c0.779,0,1.523,0.271,2.232,0.814s1.447,1.293,2.212,2.254c0.459-0.461,1.026-1.148,1.7-2.063c0.675-0.914,1.172-1.852,1.492-2.814
		c-1.655-3.477-3.122-6.492-4.401-9.043c-1.279-2.553-2.712-5.4-4.297-8.543c-0.348-0.668-0.814-1.187-1.399-1.556
		c-0.584-0.368-1.204-0.595-1.858-0.679v-1.523H99.28v1.523c-0.472,0.014-1.017,0.119-1.634,0.313
		c-0.618,0.194-0.927,0.445-0.927,0.751c0,0.112,0.021,0.234,0.063,0.365c0.042,0.133,0.118,0.324,0.229,0.574
		c0.473,0.971,1.144,2.321,2.013,4.049c0.869,1.729,1.88,3.752,3.034,6.068c0.861-1.97,1.594-3.666,2.199-5.089
		c0.604-1.422,1.191-2.82,1.761-4.194c0.139-0.347,0.219-0.621,0.24-0.823c0.021-0.201,0.032-0.337,0.032-0.407
		c0-0.25-0.122-0.469-0.365-0.657c-0.244-0.188-0.532-0.352-0.865-0.491c-0.347-0.139-0.681-0.242-1-0.313
		c-0.32-0.07-0.583-0.118-0.792-0.146v-1.523h8.622V17.635z"/>
	<path fill="#FFFFFF" d="M124.156,37.635c-2.171,0-4.203-0.352-6.096-1.055c-1.893-0.705-3.542-1.725-4.948-3.064
		c-1.378-1.309-2.464-2.93-3.257-4.859c-0.793-1.93-1.19-4.052-1.19-6.365c0-2.299,0.4-4.428,1.2-6.387
		c0.8-1.957,1.924-3.654,3.372-5.09c1.42-1.408,3.125-2.498,5.115-3.271s4.12-1.16,6.389-1.16c1.642,0,3.138,0.201,4.488,0.605
		c1.35,0.403,2.492,0.855,3.424,1.356l1.295-1.147h1.816l0.188,10.813h-1.837c-1.042-3.306-2.294-5.732-3.753-7.28
		c-1.46-1.549-3.24-2.323-5.338-2.323c-2.613,0-4.602,1.153-5.963,3.461c-1.362,2.308-2.043,5.545-2.043,9.712
		c0,2.356,0.232,4.367,0.698,6.033s1.074,3.008,1.825,4.025c0.807,1.059,1.759,1.836,2.857,2.332
		c1.099,0.494,2.315,0.742,3.649,0.742c1.947,0,3.68-0.529,5.203-1.588c1.522-1.057,2.909-2.658,4.16-4.801l1.796,1.086
		c-0.599,1.225-1.28,2.32-2.046,3.287s-1.649,1.799-2.651,2.494c-1.1,0.766-2.314,1.365-3.644,1.797S125.966,37.635,124.156,37.635z
		"/>
	<path fill="#FFFFFF" d="M156.362,18.575c1.029,0.961,1.816,2.109,2.357,3.445c0.543,1.336,0.814,2.783,0.814,4.342
		c0,1.545-0.268,3.004-0.803,4.373c-0.537,1.371-1.318,2.545-2.35,3.518c-1.1,1.045-2.41,1.846-3.936,2.402
		c-1.523,0.557-3.267,0.834-5.229,0.834c-1.699,0-3.261-0.242-4.688-0.73c-1.426-0.486-2.689-1.217-3.789-2.191
		c-1.058-0.934-1.893-2.084-2.505-3.455s-0.919-2.905-0.919-4.604c0-1.67,0.268-3.156,0.805-4.457
		c0.535-1.302,1.339-2.46,2.41-3.477c1.03-0.974,2.301-1.729,3.811-2.265s3.197-0.804,5.063-0.804c1.949,0,3.664,0.268,5.146,0.804
		S155.303,17.601,156.362,18.575z M151.016,33.042c0.307-0.779,0.533-1.725,0.68-2.838c0.145-1.113,0.219-2.408,0.219-3.883
		c0-0.975-0.07-2.088-0.209-3.341s-0.348-2.241-0.627-2.964c-0.334-0.877-0.797-1.566-1.388-2.067
		c-0.592-0.501-1.34-0.751-2.244-0.751c-0.988,0-1.778,0.271-2.37,0.813s-1.047,1.245-1.367,2.108
		c-0.292,0.793-0.494,1.723-0.605,2.787s-0.167,2.175-0.167,3.33c0,1.518,0.049,2.773,0.146,3.768
		c0.097,0.996,0.334,1.994,0.71,2.996c0.32,0.863,0.779,1.545,1.377,2.047c0.6,0.5,1.357,0.75,2.276,0.75
		c0.835,0,1.552-0.232,2.15-0.699C150.196,34.633,150.669,33.948,151.016,33.042z"/>
	<path fill="#FFFFFF" d="M171.488,36.821h-13.194v-1.523c0.361-0.027,0.717-0.063,1.064-0.105c0.348-0.041,0.647-0.111,0.897-0.209
		c0.445-0.166,0.759-0.406,0.939-0.719c0.181-0.314,0.271-0.729,0.271-1.242v-12.15c0-0.487-0.111-0.915-0.334-1.284
		c-0.223-0.368-0.501-0.665-0.835-0.888c-0.25-0.166-0.63-0.326-1.138-0.479s-0.971-0.251-1.389-0.292v-1.524l10.23-0.543
		l0.313,0.313V32.75c0,0.486,0.104,0.9,0.313,1.242c0.209,0.34,0.508,0.594,0.897,0.762c0.278,0.125,0.585,0.236,0.919,0.334
		s0.682,0.166,1.044,0.209V36.821z M168.44,8.345c0,1.058-0.407,1.96-1.222,2.704s-1.778,1.117-2.892,1.117
		c-1.127,0-2.098-0.373-2.912-1.117s-1.222-1.646-1.222-2.704s0.407-1.962,1.222-2.714s1.785-1.127,2.912-1.127
		c1.128,0,2.095,0.375,2.902,1.127C168.036,6.383,168.44,7.288,168.44,8.345z"/>
	<path fill="#FFFFFF" d="M197.033,36.821h-12.547v-1.523c0.264-0.027,0.584-0.063,0.96-0.105c0.376-0.041,0.661-0.111,0.855-0.209
		c0.293-0.152,0.502-0.375,0.627-0.668c0.125-0.291,0.188-0.723,0.188-1.293v-9.771c0-1.42-0.262-2.487-0.785-3.204
		s-1.294-1.076-2.313-1.076c-0.559,0-1.078,0.084-1.56,0.251s-0.953,0.411-1.413,0.73c-0.405,0.278-0.729,0.563-0.974,0.856
		c-0.244,0.292-0.45,0.55-0.617,0.771v11.211c0,0.488,0.069,0.895,0.208,1.221c0.14,0.328,0.369,0.574,0.689,0.742
		c0.223,0.125,0.501,0.236,0.835,0.334s0.661,0.166,0.981,0.209v1.523h-12.693v-1.523c0.348-0.027,0.699-0.066,1.054-0.115
		c0.355-0.049,0.658-0.115,0.908-0.199c0.445-0.152,0.752-0.389,0.919-0.709s0.251-0.738,0.251-1.252v-12.15
		c0-0.432-0.112-0.855-0.334-1.273c-0.224-0.418-0.516-0.759-0.877-1.023c-0.251-0.167-0.567-0.306-0.95-0.418
		c-0.383-0.11-0.804-0.188-1.263-0.229v-1.524l9.958-0.543l0.313,0.313v3.027h0.083c0.39-0.348,0.863-0.766,1.42-1.253
		s1.071-0.884,1.545-1.19c0.515-0.334,1.189-0.619,2.024-0.855s1.726-0.355,2.673-0.355c2.269,0,3.97,0.645,5.104,1.932
		c1.134,1.287,1.701,2.996,1.701,5.125v10.23c0,0.514,0.076,0.926,0.229,1.23c0.153,0.307,0.438,0.551,0.856,0.73
		c0.222,0.098,0.497,0.195,0.824,0.293s0.699,0.166,1.117,0.209V36.821z"/>
</g>
<g>
	<circle cx="26.272" cy="24.023" r="24.022"/>
	<g>
		<g>
			<g>
				<defs>
					<path id="SVGID_1_" d="M19.333,12.242c-0.747,0-1.554,0-2.422,0c2.163,3.246,4.32,6.482,6.506,9.764
						c2.778-4.207,5.558-8.416,8.345-12.638c3.005,0,6.002,0,9.088,0c-0.417,0.664-0.795,1.303-1.207,1.919
						c-1.044,1.565-2.166,3.081-3.14,4.688c-1.208,1.991-2.557,3.883-3.828,5.83c-0.822,1.259-1.62,2.533-2.467,3.86
						c-0.02,13.007-0.02,13.007-0.02,13.007l0,0l0,0l-2.171,0.009c-1.855,0-3.709,0-5.563,0c0-2.163,0-4.327,0-6.509
						c0.909-1.313,1.826-2.64,2.833-4.098c0,2.664,0,5.157,0,7.721c0.352,0.008,0.676,0.016,1,0.02c0.333,0.003,0.667,0,1.029,0
						c0-3.757,0-7.485,0-11.055c2.864-4.247,5.646-8.37,8.449-12.523c-0.837,0-1.644,0-2.503,0
						c-1.622,2.464-3.232,4.984-4.918,7.452c-1.668,2.442-3.179,4.991-4.963,7.409C19.46,21.176,15.576,15.244,11.693,9.38
						l9.209-0.015c1.37,2.108,2.75,4.232,4.128,6.351c-0.515,0.827-1.156,1.729-1.655,2.53l0,0"/>
				</defs>
				<use xlink:href="#SVGID_1_"  overflow="visible" fill="#FFFFFF"/>
				<clipPath id="SVGID_2_">
					<use xlink:href="#SVGID_1_"  overflow="visible"/>
				</clipPath>
			</g>
		</g>
	</g>
</g>
<g display="none">
	<path display="inline" fill="#FFFFFF" d="M72.875,38.299h-7.906v-25.66h25.66v16.783H72.875V38.299z M82.723,21.516v-0.971h-9.848
		v0.971H82.723z"/>
	<path display="inline" fill="#FFFFFF" d="M100.477,38.299V28.208L90.109,12.639h9.674l4.646,6.519l4.716-6.519h9.605
		l-10.368,15.569v10.091H100.477z"/>
	<path display="inline" fill="#FFFFFF" d="M118.23,12.639h25.66v7.906h-17.754v9.848h17.754v7.906h-25.66V12.639z"/>
	<path display="inline" fill="#FFFFFF" d="M170.521,12.639v25.66h-25.66v-25.66H170.521z M152.767,20.545v9.848h9.848v-9.848
		H152.767z"/>
	<path display="inline" fill="#FFFFFF" d="M179.398,12.639v25.66h-7.906v-25.66H179.398z"/>
	<path display="inline" fill="#FFFFFF" d="M180.369,38.299V4.49l17.754,20.875V12.639h7.906l0.034,36.652L188.275,25.92v12.379
		H180.369z"/>
</g>
</svg>
